# xmcd
# 
# Track frame offsets:
#     150
#     23227
#     47050
#     77307
#     106125
#     131482
#     168912
#     185240
#     216447
#     247175
#     289552
# 
# Disc length: 4447
# 
# Revision: 2
# Processed by: cddbd v1.5.2PL0 Copyright (c) Steve Scherf et al.
# Submitted via: fre:ac v1.0.31
# 
DISCID=97115d0b
DTITLE=Eric Clapton - Orchestra Night  <MVR001>  Disc  1
DYEAR=1990
DGENRE=Blues
TTITLE0=Layla Orchestra Intro Reprise
TTITLE1=Crossroads
TTITLE2=Bell Bottom Blues
TTITLE3=Lay Down Sally
TTITLE4=Holy Mother
TTITLE5=I Shot the Sheriff
TTITLE6=Hard Times
TTITLE7=Can't Find My Way Home
TTITLE8=Edge of Darkness
TTITLE9=Old Love
TTITLE10=Wonderful Tonight
EXTD=Eric Clapton\tguitar, vocals\nPhil Palmer\tguitar\nAlan Clark\tkeyboards\nGreg Phillinganes\tkeyboards\nNathan East\tbass\nSteve Ferrone\tdrumsEXTD=nRay Cooper\tpercussion\nTessa Niles\tbackground vocals\nKatie Kissoon\tbackground vocals\n\nThe Natio
EXTD=nal Philharmonic Orchestra conducted by Michael Kamen\n\nRecorded at Royal Albert Hall, London, UK on February 10, 1990
EXTT0=
EXTT1=
EXTT2=
EXTT3=
EXTT4=
EXTT5=
EXTT6=
EXTT7=
EXTT8=
EXTT9=
EXTT10=
PLAYORDER=
